<svg xmlns="http://www.w3.org/2000/svg" viewBox="0 0 24 24" width="24" height="24" fill="#61dafb">
    <path d="M12 9.861a2.139 2.139 0 100 4.278 2.139 2.139 0 100-4.278zm-5.992 6.394c-.37 0-.675.284-.675.636 0 .352.305.636.675.636.37 0 .674-.284.674-.636 0-.352-.305-.636-.674-.636zM12 6.995c2.269 0 4.381.708 5.973 1.908a17.351 17.351 0 001.695-1.995 19.01 19.01 0 00-4.702-2.958A6.357 6.357 0 0013.5 1.5h-3a6.358 6.358 0 00-1.467 2.45A19.047 19.047 0 004.32 6.911c.616.747 1.163 1.416 1.696 2.002A10.337 10.337 0 0112 6.995zm0 10.003c-2.269 0-4.381-.708-5.973-1.908a17.354 17.354 0 00-1.696 1.995 19.014 19.014 0 004.715 2.954A6.35 6.35 0 0010.5 22.5h3c.343-1.043.82-1.936 1.471-2.455a19.06 19.06 0 004.713-2.954 17.354 17.354 0 00-1.696-1.995 10.34 10.34 0 01-5.988 1.902zM12 8.67c-1.837 0-3.33 1.479-3.33 3.33 0 1.851 1.493 3.33 3.33 3.33 1.837 0 3.33-1.479 3.33-3.33 0-1.851-1.493-3.33-3.33-3.33zm9.993 5.585c.37 0 .675-.284.675-.636 0-.352-.305-.636-.675-.636-.37 0-.674.284-.674.636 0 .352.305.636.674.636zM12 0C5.373 0 0 5.373 0 12s5.373 12 12 12 12-5.373 12-12S18.627 0 12 0zM5.659 13.789c0-1.391.515-2.73 1.688-3.777 1.173-1.047 2.647-1.555 4.125-1.524.693.027 1.431.171 2.098.343.4.103.809.103 1.209 0 .667-.171 1.405-.316 2.098-.343 1.478-.031 2.952.477 4.125 1.524 1.174 1.047 1.688 2.389 1.688 3.777 0 1.684-.86 3.055-2.625 4.16a14.77 14.77 0 01-3.004 1.568c-.257.096-.456.279-.56.548a4.153 4.153 0 00-.097 1.388c.028.359-.274.617-.734.636a.724.724 0 01-.762-.626 3.469 3.469 0 01-.023-.815c.013-.208-.071-.375-.224-.5-.155-.126-.359-.185-.56-.164-.403.042-.778.221-1.175.4-.397.179-.896.394-1.187.394-.292 0-.791-.216-1.187-.395-.398-.179-.772-.358-1.175-.4-.204-.02-.412.042-.56.164-.153.126-.237.293-.224.5.012.242.017.531-.023.815a.723.723 0 01-.762.626c-.46-.02-.762-.276-.734-.636.14-.5-.026-.956-.097-1.388-.104-.268-.303-.452-.56-.548a14.77 14.77 0 01-3.004-1.568c-1.765-1.105-2.625-2.476-2.625-4.16z"/>
</svg> 